<?xml version="1.0" standalone="no"?>
<!DOCTYPE svg PUBLIC "-//W3C//DTD SVG 20010904//EN"
 "http://www.w3.org/TR/2001/REC-SVG-20010904/DTD/svg10.dtd">
<svg version="1.0" xmlns="http://www.w3.org/2000/svg"
 width="1440.000000pt" height="1440.000000pt" viewBox="0 0 1440.000000 1440.000000"
 preserveAspectRatio="xMidYMid meet">
<metadata>
Created by potrace 1.11, written by Peter Selinger 2001-2013
</metadata>
<g transform="translate(0.000000,1440.000000) scale(0.100000,-0.100000)"
fill="#000000" stroke="none">
<path d="M1637 13230 c-76 -24 -137 -108 -137 -188 0 -38 109 -730 836 -5292
163 -1020 296 -1866 297 -1880 0 -14 -14 -81 -32 -150 -165 -634 -71 -1348
257 -1935 453 -813 1270 -1351 2249 -1482 181 -24 590 -24 768 1 425 58 806
183 1143 377 661 379 1137 974 1337 1669 19 67 35 131 35 143 0 68 -51 151
-110 182 -43 22 -101 28 -148 15 -51 -13 -115 -67 -133 -113 -7 -17 -13 -33
-14 -35 -2 -2 -4725 1130 -4920 1179 l-40 10 2 125 c2 118 -8 186 -178 1252
-98 620 -353 2218 -565 3552 -314 1976 -389 2433 -408 2470 -31 62 -87 100
-157 105 -29 3 -67 0 -82 -5z"/>
<path d="M9893 13146 c-123 -40 -228 -147 -265 -271 -5 -16 -85 -574 -178
-1238 l-170 -1208 -34 -45 c-57 -75 -80 -145 -80 -249 0 -69 5 -103 23 -147
l22 -56 -211 -1504 c-116 -826 -222 -1586 -237 -1688 -23 -169 -28 -188 -54
-222 -104 -130 -116 -308 -34 -468 13 -25 32 -65 42 -90 91 -222 379 -309 582
-175 l37 25 245 -35 c134 -19 440 -62 679 -95 239 -33 548 -77 685 -97 220
-32 273 -37 445 -37 223 0 346 15 559 70 1048 268 1780 1280 1738 2399 -22
575 -226 1083 -608 1514 -255 287 -655 540 -1014 641 -176 50 -271 65 -1095
180 -470 66 -860 121 -865 122 -7 2 49 426 147 1123 86 616 157 1143 158 1171
0 104 -55 226 -138 301 -15 13 -54 38 -87 55 -53 28 -71 32 -155 35 -61 2
-110 -2 -137 -11z m442 -3525 c193 -27 517 -73 720 -101 545 -75 709 -104 832
-145 209 -70 391 -184 553 -346 213 -213 353 -479 421 -799 33 -153 33 -447 1
-606 -100 -499 -400 -903 -830 -1118 -231 -116 -508 -170 -743 -146 -121 12
-1729 236 -1733 241 -2 2 88 654 199 1449 237 1690 227 1620 229 1620 0 0 159
-22 351 -49z"/>
<path d="M5694 10375 c-453 -66 -859 -270 -1179 -590 -257 -256 -441 -577
-529 -920 -84 -327 -83 -394 27 -1896 95 -1304 86 -1235 163 -1346 43 -63 133
-126 212 -149 38 -11 79 -15 131 -12 178 10 325 134 365 306 15 65 12 109 -75
1332 -84 1172 -90 1273 -80 1372 39 370 232 692 536 893 225 149 447 215 720
215 266 0 494 -69 719 -217 91 -60 259 -228 318 -318 102 -155 167 -319 193
-488 9 -56 54 -642 100 -1302 47 -660 90 -1223 95 -1251 24 -118 130 -239 250
-286 75 -29 204 -29 277 -1 122 48 214 152 249 279 l18 68 -87 1231 c-49 676
-95 1281 -103 1344 -75 568 -398 1081 -886 1409 -246 165 -560 284 -866 326
-137 19 -438 20 -568 1z"/>
<path d="M0 8222 c0 -159 14 -396 36 -602 156 -1493 757 -2870 1751 -4012 135
-156 501 -522 658 -659 1096 -954 2407 -1546 3840 -1733 504 -66 1136 -74
1655 -20 1484 153 2874 759 4012 1751 158 137 524 503 661 661 856 982 1420
2138 1661 3402 78 407 125 864 126 1208 l0 142 -200 0 -200 0 0 -37 c0 -105
-22 -487 -36 -623 -216 -2178 -1443 -4096 -3329 -5206 -310 -182 -735 -383
-1085 -512 -1048 -387 -2189 -508 -3300 -351 -1925 271 -3646 1357 -4715 2974
-617 933 -987 1974 -1100 3095 -13 137 -34 502 -35 618 l0 42 -200 0 -200 0 0
-138z"/>
</g>
</svg>
